<?xml version="1.0" encoding="UTF-8" standalone="no"?>
<svg
   width="88.120308mm"
   height="82.214645mm"
   viewBox="0 0 88.120308 82.214645"
   version="1.1"
   xmlns="http://www.w3.org/2000/svg"><defs /><g
     transform="translate(-61.380027,-29.298895)"><g
       transform="translate(4.8808523,-19.035332)"><path
         style="fill:#8cc2b6"
         d="m 74.048676,130.21344 c -1.211481,-0.63794 -1.231389,-0.76606 -1.231696,-7.92691 l -2.74e-4,-6.39846 -0.452455,-0.17202 c -0.24885,-0.0946 -1.444014,-0.17203 -2.655919,-0.17203 -2.640946,0 -3.371036,-0.15519 -5.446487,-1.15773 -3.776711,-1.82432 -6.281783,-4.70179 -7.354852,-8.4482 l -0.406259,-1.41837 V 81.941942 c 0,-25.338369 -0.100808,-23.331604 1.320261,-26.281942 1.679746,-3.48739 5.496446,-6.44615 9.228251,-7.153872 0.505369,-0.09584 14.340724,-0.164712 33.608014,-0.167296 36.88601,-0.0049 33.52557,-0.137417 36.71778,1.447433 1.56522,0.777097 2.07064,1.141086 3.26319,2.350099 2.1143,2.143478 3.17994,4.190926 3.71596,7.139608 0.35292,1.941425 0.35422,43.556048 0.001,45.508328 -0.67141,3.71538 -3.02892,7.05067 -6.37875,9.02433 -2.77222,1.63334 -4.37762,1.90397 -11.32298,1.90873 -3.98632,0.003 -4.47123,-0.0279 -4.57124,-0.28851 -0.0615,-0.16036 0.41805,-2.68052 1.06575,-5.60035 0.6477,-2.91983 1.17679,-5.58962 1.17576,-5.93286 -0.003,-0.86263 -0.67699,-2.11644 -1.39499,-2.59359 -0.40704,-0.2705 -0.86263,-0.3983 -1.41989,-0.3983 -0.4513,0 -3.51534,0.68494 -6.80899,1.52209 -3.29364,0.83714 -6.98062,1.7547 -8.1933,2.03902 -3.65766,0.85754 -4.59517,1.54657 -4.71807,3.46759 -0.0882,1.37793 0.28311,2.00792 1.89585,3.217 0.7276,0.54549 1.32292,1.07266 1.32292,1.17149 0,0.0988 -0.68762,0.90414 -1.52805,1.78958 l -1.52805,1.60989 h -4.750514 c -4.618092,0 -4.759885,0.0104 -5.086537,0.37423 -0.18481,0.20582 -1.923518,1.77092 -3.863796,3.478 -1.940278,1.70708 -5.035902,4.45776 -6.879166,6.11263 -5.771257,5.18139 -5.914355,5.26987 -7.322891,4.52817 z m 18.231057,-4.1585 c -1.401732,-0.26785 -2.871047,-0.71753 -3.675055,-1.12474 -0.487317,-0.24681 -0.500908,-0.27799 -0.176389,-0.40468 0.193386,-0.0755 0.788173,-0.14388 1.32175,-0.15197 4.121108,-0.0625 9.23051,-2.62457 13.563041,-6.80105 2.26071,-2.17929 5.18636,-5.5055 5.04446,-5.73511 -0.0512,-0.0829 -0.99508,-0.82819 -2.09741,-1.65614 -1.10233,-0.82796 -2.05308,-1.63267 -2.11278,-1.78825 -0.16283,-0.42432 0.19187,-0.94397 0.73313,-1.07407 0.26398,-0.0634 1.71029,-0.42877 3.214,-0.81181 14.15651,-3.60611 13.75834,-3.53747 13.75834,-2.37182 0,1.05756 -3.5764,16.59849 -3.91315,17.00424 -0.3348,0.40341 -0.96906,0.24826 -1.51169,-0.36977 -0.28738,-0.3273 -1.01865,-1.31949 -1.62505,-2.20486 -0.60641,-0.88538 -1.18495,-1.60978 -1.28565,-1.60978 -0.1007,0 -1.02468,0.78233 -2.05329,1.73851 -4.22786,3.93013 -8.33861,6.24999 -12.718118,7.17732 -1.853204,0.39241 -4.918897,0.47963 -6.466139,0.18398 z"
         id="path2" /><path
         style="fill:#364044"
         d="m 88.960983,97.003104 c -2.184832,-0.318212 -3.755011,-1.526655 -4.539501,-3.493694 -0.361557,-0.906571 -0.392948,-1.278387 -0.398286,-4.717607 -0.0057,-3.687159 -0.01101,-3.739032 -0.426273,-4.18163 -0.266218,-0.283744 -0.75907,-0.518449 -1.343412,-0.639758 -1.266497,-0.262924 -1.716399,-0.768583 -1.716399,-1.929113 0,-1.171203 0.364009,-1.709479 1.319053,-1.95054 2.170614,-0.54788 2.529559,-1.328766 2.209728,-4.807267 -0.311539,-3.38832 0.24607,-5.489654 1.836076,-6.919206 1.158132,-1.04126 2.499506,-1.534059 4.260377,-1.565191 1.350643,-0.02388 1.394265,-0.01122 1.89618,0.550526 0.418457,0.468334 0.513735,0.734395 0.513735,1.434589 0,1.218185 -0.346958,1.572167 -1.849724,1.887173 -1.345714,0.282085 -1.915728,0.685936 -2.204909,1.562164 -0.107353,0.325284 -0.16473,1.805908 -0.137411,3.545937 l 0.0469,2.987456 -0.586625,1.195313 c -0.322643,0.657422 -0.77905,1.321394 -1.014236,1.475494 -0.555934,0.364262 -0.540052,0.507083 0.131011,1.178146 0.307242,0.307242 0.763648,0.995667 1.014236,1.529834 0.443567,0.945533 0.454308,1.05381 0.406217,4.095097 -0.06554,4.144971 0.15813,4.658292 2.172159,4.985044 1.358132,0.220341 1.489358,0.279613 1.754585,0.792505 0.311587,0.602543 0.351761,1.812776 0.07721,2.325789 -0.230636,0.430948 -1.203645,0.86339 -1.876317,0.833906 -0.269904,-0.01183 -0.964872,-0.09056 -1.544374,-0.174967 z m 19.019397,-2.965531 c -0.61778,-0.376696 -1.03798,-1.356477 -0.85544,-1.994598 0.49334,-1.724565 6.90915,-20.827825 7.167,-21.339926 0.3958,-0.786069 0.78749,-1.021999 1.68435,-1.014524 0.9846,0.0082 1.81958,0.82677 1.81958,1.783798 0,0.396168 -3.65612,11.707091 -6.406,19.81823 -0.81697,2.40978 -1.31473,3.087217 -2.26758,3.086146 -0.32276,-3.63e-4 -0.83662,-0.15297 -1.14191,-0.339126 z M 72.603515,93.144681 c -1.145778,-0.345388 -2.24045,-1.626174 -2.514317,-2.941799 -0.24443,-1.174217 0.575955,-2.896021 1.707834,-3.584357 0.72857,-0.44307 1.913537,-0.589055 2.818097,-0.347183 1.561367,0.417498 2.789023,2.364795 2.561287,4.062691 -0.266073,1.983723 -2.58596,3.409599 -4.572901,2.810648 z M 102.26156,89.34214 c -0.51122,-0.344023 -1.96779,-1.450068 -3.236822,-2.457877 -1.269036,-1.00781 -2.823276,-2.215699 -3.453866,-2.684199 -1.323866,-0.983571 -1.687355,-1.705295 -1.393981,-2.767809 0.186982,-0.67719 0.600402,-1.067608 3.598842,-3.398603 4.495867,-3.495099 5.388567,-4.117403 5.906467,-4.117403 1.53157,0 2.39353,1.439041 1.6839,2.811299 -0.25368,0.490566 -0.61265,0.795049 -4.28308,3.632979 -0.99439,0.768852 -1.807982,1.485638 -1.807982,1.592859 0,0.200518 2.032992,1.883128 4.464502,3.695045 1.85271,1.380613 2.24897,2.222728 1.61909,3.440792 -0.56352,1.089723 -1.71397,1.183673 -3.09707,0.252917 z m 18.02317,0.379345 c -0.8634,-0.478548 -1.17202,-1.822619 -0.61404,-2.674208 0.15802,-0.241177 1.32881,-1.228736 2.60174,-2.194575 1.27292,-0.965839 2.59223,-1.997205 2.93177,-2.291924 l 0.61736,-0.535853 -0.88194,-0.798476 c -0.48507,-0.439161 -1.75507,-1.459422 -2.82222,-2.267246 -2.39549,-1.813364 -2.57787,-2.015786 -2.68679,-2.982055 -0.0765,-0.678522 -0.0205,-0.850581 0.44737,-1.374172 0.45274,-0.506707 0.65247,-0.598533 1.30183,-0.598533 0.64786,0 0.97217,0.148228 2.08704,0.953884 0.726,0.524636 1.75656,1.3244 2.29013,1.777254 0.53358,0.452853 1.60514,1.283712 2.38125,1.846353 1.95178,1.414944 2.71181,2.181481 2.91644,2.941407 0.30243,1.123138 -0.15073,1.72306 -2.82824,3.744161 -0.72761,0.549227 -1.95696,1.515995 -2.73189,2.148374 -2.99546,2.444425 -3.95916,2.887937 -5.00981,2.305609 z"
         id="path1" /></g></g></svg>
